HIERARCHY
ROOT Hips
{
	OFFSET 0.000000 88.474243 0.000000
	CHANNELS 6 Xposition Yposition Zposition Zrotation Yrotation Xrotation 
	JOINT Hips_Spine
	{
		OFFSET 0.000000 0.000000 0.000000
		CHANNELS 3 Zrotation Yrotation Xrotation
		JOINT Spine
		{
			OFFSET 0.005100 8.711998 -0.691000
			CHANNELS 3 Zrotation Yrotation Xrotation
			JOINT Spine1
			{
				OFFSET -0.009200 8.660301 -1.275000
				CHANNELS 3 Zrotation Yrotation Xrotation
				JOINT Spine2
				{
					OFFSET 0.006300 9.852501 -1.857000
					CHANNELS 3 Zrotation Yrotation Xrotation
					JOINT Spine2_Neck
					{
						OFFSET 0.000000 0.000000 0.000000
						CHANNELS 3 Zrotation Yrotation Xrotation
						JOINT Neck
						{
							OFFSET 0.016300 11.420799 -0.263300
							CHANNELS 3 Zrotation Yrotation Xrotation
							End Site #name: Head
							{
								OFFSET -0.019200 9.262405 2.362500
							}
						}
					}
					JOINT Spine2_LeftShoulder
					{
						OFFSET 0.000000 0.000000 0.000000
						CHANNELS 3 Zrotation Yrotation Xrotation
						JOINT LeftShoulder
						{
							OFFSET 5.616900 6.732201 -0.345700
							CHANNELS 3 Zrotation Yrotation Xrotation
							JOINT LeftArm
							{
								OFFSET 10.664888 -0.183372 -2.440700
								CHANNELS 3 Zrotation Yrotation Xrotation
								JOINT LeftForeArm
								{
									OFFSET 27.459126 0.000000 0.000000
									CHANNELS 3 Zrotation Yrotation Xrotation
									End Site #name: LeftHand
									{
										OFFSET 21.306858 0.000000 0.000000
									}
								}
							}
						}
					}
					JOINT Spine2_RightShoulder
					{
						OFFSET 0.000000 0.000000 0.000000
						CHANNELS 3 Zrotation Yrotation Xrotation
						JOINT RightShoulder
						{
							OFFSET -5.580300 6.737503 -0.344400
							CHANNELS 3 Zrotation Yrotation Xrotation
							JOINT RightArm
							{
								OFFSET -10.679335 -0.188484 -2.383900
								CHANNELS 3 Zrotation Yrotation Xrotation
								JOINT RightForeArm
								{
									OFFSET -27.503529 0.000000 0.000000
									CHANNELS 3 Zrotation Yrotation Xrotation
									End Site #name: RightHand
									{
										OFFSET -21.306808 0.000000 0.000000
									}
								}
							}
						}
					}
				}
			}
		}
	}
	JOINT Hips_LeftUpLeg
	{
		OFFSET 0.000000 0.000000 0.000000
		CHANNELS 3 Zrotation Yrotation Xrotation
		JOINT LeftUpLeg
		{
			OFFSET 6.857700 -6.739601 0.312100
			CHANNELS 3 Zrotation Yrotation Xrotation
			JOINT LeftLeg
			{
				OFFSET -0.367590 -34.731552 -4.572400
				CHANNELS 3 Zrotation Yrotation Xrotation
				End Site #name: LeftFoot
				{
					OFFSET 0.367590 -34.656704 -6.067400
				}
			}
		}
	}
	JOINT Hips_RightUpLeg
	{
		OFFSET 0.000000 0.000000 0.000000
		CHANNELS 3 Zrotation Yrotation Xrotation
		JOINT RightUpLeg
		{
			OFFSET -6.876100 -6.733299 0.301000
			CHANNELS 3 Zrotation Yrotation Xrotation
			JOINT RightLeg
			{
				OFFSET 0.347353 -34.795158 -4.515900
				CHANNELS 3 Zrotation Yrotation Xrotation
				End Site #name: RightFoot
				{
					OFFSET -0.347353 -34.589367 -6.070300
				}
			}
		}
	}
}
MOTION
Frames: 10
Frame Time: 0.041667
0.033220 -0.020537 -0.072450 -177.630938 59.812423 -173.675083 -0.000000 -0.000000 0.000000 -4.050374 3.488695 -1.078232 0.940083 -0.378305 0.438402 0.000000 0.000000 0.000000 0.358156 -0.964686 -2.871367 -1.719540 -8.276344 -0.786457 0.536932 -0.120079 -1.182105 -3.417767 -7.294961 1.517084 -77.945492 -8.817935 10.059013 0.760650 -16.820279 3.477892 0.252603 -0.563961 -1.668899 18.684624 13.262764 4.468140 51.193798 12.414948 -11.085864 -7.725289 72.468404 -1.383370 0.000000 -0.000000 0.000000 -8.246303 18.538862 -15.554598 -7.082452 -36.975913 0.694962 -0.000000 -0.000000 -0.000000 -9.021242 -31.108770 -7.073929 -15.359750 -10.837585 14.646242 
-0.224514 -0.197146 -0.118923 179.386111 64.562124 -175.105284 -0.000000 -0.000000 0.000000 -5.852067 2.250359 1.296908 1.196252 -0.653679 -0.604368 0.000000 0.000000 0.000000 1.144915 -0.677296 -2.848714 -0.458325 -16.071947 -0.030464 0.669159 -0.341781 -1.914061 -2.341749 -8.766711 1.741723 -83.766536 -15.804234 6.227049 -1.128767 -13.559656 1.621742 0.997298 -0.924471 -0.614058 24.357592 16.283275 4.898158 50.285116 11.061334 -11.633964 -5.143660 57.292225 0.587888 -0.000000 -0.000000 -0.000000 -6.477849 19.608346 -13.361906 -3.621012 -34.566586 -5.146033 -0.000000 -0.000000 -0.000000 -9.396393 -36.734493 -5.830305 -13.473105 -7.282362 13.913499 
-0.239818 -0.269758 -0.136281 177.761508 53.393523 -176.603052 -0.000000 -0.000000 0.000000 -6.659492 -0.643216 1.823856 1.502239 -0.692246 -1.222132 0.000000 0.000000 0.000000 1.607999 -0.855052 -3.028801 -1.165960 -25.466708 0.064180 0.742235 -0.321087 -2.407796 -1.102882 -7.868414 1.100188 -85.382698 -17.018006 1.055170 -0.849093 -7.776829 1.828755 1.404886 -1.066929 -2.032890 25.936543 18.525466 5.876953 51.282326 10.432214 -6.445123 -4.272093 53.388868 3.136233 -0.000000 0.000000 -0.000000 -5.127807 20.628869 -11.929580 -2.644273 -33.353006 -7.272148 -0.000000 -0.000000 -0.000000 -9.842917 -41.903025 -3.695327 -13.399781 -7.341605 14.743548 
-0.100522 -0.314287 -0.151531 178.017457 40.698150 -177.157497 -0.000000 -0.000000 0.000000 -6.487469 -1.578106 2.590516 1.206624 -1.002645 -1.568654 0.000000 0.000000 0.000000 1.558285 -1.125351 -2.877883 -1.836159 -30.337536 0.150912 0.625820 -0.507248 -2.755983 -0.694322 -7.070100 0.756902 -86.373788 -18.235470 -0.808516 -0.584796 -5.001153 1.858426 1.198346 -1.484285 -2.142079 24.649026 18.139212 5.901171 51.680899 11.287915 -3.839441 -2.641174 52.961070 4.516314 -0.000000 0.000000 -0.000000 -4.447835 21.451779 -10.777482 -2.058141 -34.178826 -8.074600 -0.000000 -0.000000 -0.000000 -10.712697 -48.865627 -2.426173 -13.775127 -6.615414 15.814499 
0.055749 -0.334192 -0.211001 177.650029 29.121868 -177.773699 -0.000000 -0.000000 0.000000 -5.899298 -1.785755 2.837725 0.753300 -1.263603 -1.712201 0.000000 0.000000 0.000000 1.344212 -1.370085 -2.405622 -1.818464 -32.127775 -0.003637 0.337498 -0.743229 -2.771433 -0.731538 -6.310139 0.583770 -86.984420 -19.145669 -0.578928 0.136602 -3.841092 2.518412 0.811364 -1.740908 -1.813954 22.238063 16.876854 5.500835 52.205137 12.209249 -1.068961 -1.633111 53.222442 4.564560 -0.000000 0.000000 -0.000000 -4.141001 22.078650 -10.146958 -1.752647 -34.661021 -8.497475 -0.000000 -0.000000 -0.000000 -11.184318 -54.154393 -1.883605 -14.354286 -5.674054 16.868430 
0.220541 -0.329310 -0.306274 176.866872 19.481160 -178.252591 -0.000000 -0.000000 0.000000 -5.206635 -1.615425 2.958985 0.340467 -1.455741 -1.473073 0.000000 0.000000 0.000000 1.081056 -1.493610 -1.654129 -1.346613 -31.590358 -0.767413 0.053379 -0.914657 -2.366984 -0.907002 -5.569711 0.503291 -87.428157 -19.214993 0.370954 1.082852 -3.441447 3.374859 0.445533 -1.860125 -1.116679 20.088043 15.590824 5.119461 52.903698 11.973308 1.618334 -1.808996 52.818413 3.590652 -0.000000 0.000000 -0.000000 -4.196308 22.212829 -10.010656 -1.633098 -34.993711 -8.821045 -0.000000 -0.000000 -0.000000 -11.127256 -57.753970 -2.041870 -14.875076 -5.187565 17.639761 
0.389297 -0.304727 -0.423804 176.010292 12.627405 -178.501890 -0.000000 -0.000000 0.000000 -4.764514 -0.632399 3.055690 0.054472 -1.498226 -0.853990 0.000000 0.000000 0.000000 0.859729 -1.518296 -0.782579 -0.726918 -30.173619 -1.768373 -0.098114 -0.997156 -1.836594 -1.120492 -4.834629 0.451452 -87.316357 -19.247753 1.306288 1.910375 -3.987680 4.131422 0.202939 -1.907340 -0.675435 18.524622 14.592707 5.069948 53.838402 10.101275 4.944437 -1.954803 51.452959 3.158973 -0.000000 0.000000 -0.000000 -4.420707 21.876581 -10.158235 -1.570862 -35.286934 -9.229636 -0.000000 -0.000000 -0.000000 -10.837089 -59.622108 -2.520814 -15.372733 -5.375588 17.970292 
0.557642 -0.270552 -0.551083 175.323731 7.509939 -178.591446 -0.000000 -0.000000 0.000000 -4.634635 0.625319 3.102747 -0.068899 -1.450339 -0.084707 0.000000 0.000000 0.000000 0.686283 -1.491550 0.093288 -0.189575 -28.716202 -2.619785 -0.189682 -1.003122 -1.346313 -1.245260 -4.264650 0.426010 -86.796966 -19.502253 2.075073 2.477865 -5.202276 4.468973 0.065432 -1.916437 -0.411296 17.476693 14.118109 4.641257 54.660583 8.211659 7.666357 -1.834321 49.054856 3.261858 -0.000000 0.000000 -0.000000 -4.610468 21.374750 -10.301428 -1.528188 -35.511827 -9.579311 -0.000000 -0.000000 -0.000000 -10.642707 -60.168817 -2.943886 -15.830486 -5.999503 17.917568 
0.723125 -0.230382 -0.678593 174.820485 2.841738 -178.626026 -0.000000 -0.000000 0.000000 -4.726870 1.632612 3.214378 -0.110166 -1.371600 0.686036 0.000000 0.000000 0.000000 0.558427 -1.439174 0.791442 0.052078 -27.615086 -3.016429 -0.251820 -0.984218 -0.940316 -1.254519 -3.854147 0.445469 -86.093280 -19.828105 2.920253 2.828696 -6.932636 4.329872 -0.030456 -1.924015 -0.154443 16.750404 13.944596 4.182230 55.011977 7.426701 8.118917 -1.536606 45.749871 3.677366 -0.000000 0.000000 -0.000000 -4.657668 20.892142 -10.070979 -1.492106 -35.753821 -9.996417 -0.000000 -0.000000 -0.000000 -10.576373 -60.183158 -3.228538 -15.985830 -6.723275 17.508353 
0.881463 -0.182291 -0.809843 174.519835 -1.482420 -178.651040 -0.000000 -0.000000 0.000000 -5.024266 2.250989 3.434744 -0.105854 -1.310741 1.218156 0.000000 0.000000 0.000000 0.478134 -1.406181 1.276137 0.314675 -27.237915 -3.160325 -0.293008 -0.982646 -0.665464 -1.135901 -3.677735 0.502404 -85.484993 -20.379133 3.599596 3.116532 -8.911598 3.779616 -0.116803 -1.936760 0.020226 16.196652 13.765565 3.835025 55.271838 7.034955 7.947217 -1.138084 42.622085 4.227578 0.000000 0.000000 -0.000000 -4.577429 20.481569 -9.482931 -1.440645 -36.059425 -10.402276 -0.000000 -0.000000 -0.000000 -10.629936 -59.789829 -3.325970 -15.856566 -7.512708 16.893664 
